<mxfile host="app.diagrams.net" modified="2023-11-25T00:57:36.039Z" agent="Mozilla/5.0 (Windows NT 10.0; Win64; x64) AppleWebKit/537.36 (KHTML, like Gecko) Chrome/116.0.5845.686 YaBrowser/23.9.5.686 Yowser/2.5 Safari/537.36" etag="SJXte1PuB3cupwvxDrt7" version="22.1.4" type="device">
  <diagram id="RIsx4OWrCgGug_Piqi56" name="Страница — 1">
    <mxGraphModel dx="1524" dy="886" grid="1" gridSize="10" guides="1" tooltips="1" connect="1" arrows="1" fold="1" page="1" pageScale="1" pageWidth="827" pageHeight="1169" math="0" shadow="0">
      <root>
        <mxCell id="0" />
        <mxCell id="1" parent="0" />
        <mxCell id="4a9bZZS92-BhcnEdYSsW-15" value="" style="ellipse;fillColor=strokeColor;html=1;" parent="1" vertex="1">
          <mxGeometry x="371.5" y="100" width="15" height="15" as="geometry" />
        </mxCell>
        <mxCell id="4a9bZZS92-BhcnEdYSsW-21" value="Пользователь" style="text;html=1;strokeColor=default;fillColor=none;align=center;verticalAlign=middle;whiteSpace=wrap;rounded=0;" parent="1" vertex="1">
          <mxGeometry x="80" y="40" width="200" height="40" as="geometry" />
        </mxCell>
        <mxCell id="4a9bZZS92-BhcnEdYSsW-22" value="Сайт (Фронт-енд)" style="text;html=1;strokeColor=default;fillColor=none;align=center;verticalAlign=middle;whiteSpace=wrap;rounded=0;" parent="1" vertex="1">
          <mxGeometry x="280" y="40" width="200" height="40" as="geometry" />
        </mxCell>
        <mxCell id="4a9bZZS92-BhcnEdYSsW-23" value="Сервер (Бэк-енд)" style="text;html=1;strokeColor=default;fillColor=none;align=center;verticalAlign=middle;whiteSpace=wrap;rounded=0;" parent="1" vertex="1">
          <mxGeometry x="480" y="40" width="200" height="40" as="geometry" />
        </mxCell>
        <mxCell id="4a9bZZS92-BhcnEdYSsW-24" value="" style="endArrow=classic;html=1;rounded=0;exitX=0.5;exitY=1;exitDx=0;exitDy=0;" parent="1" source="4a9bZZS92-BhcnEdYSsW-15" edge="1">
          <mxGeometry width="50" height="50" relative="1" as="geometry">
            <mxPoint x="339" y="350" as="sourcePoint" />
            <mxPoint x="379" y="160" as="targetPoint" />
          </mxGeometry>
        </mxCell>
        <mxCell id="4a9bZZS92-BhcnEdYSsW-26" value="Вывод списка пользователей" style="text;html=1;strokeColor=default;fillColor=none;align=center;verticalAlign=middle;whiteSpace=wrap;rounded=1;" parent="1" vertex="1">
          <mxGeometry x="318.5" y="160" width="121" height="50" as="geometry" />
        </mxCell>
        <mxCell id="4a9bZZS92-BhcnEdYSsW-27" value="" style="endArrow=classic;html=1;rounded=0;exitX=0;exitY=0.5;exitDx=0;exitDy=0;entryX=1;entryY=0.5;entryDx=0;entryDy=0;" parent="1" source="4a9bZZS92-BhcnEdYSsW-26" target="4a9bZZS92-BhcnEdYSsW-28" edge="1">
          <mxGeometry width="50" height="50" relative="1" as="geometry">
            <mxPoint x="320" y="350" as="sourcePoint" />
            <mxPoint x="240" y="185" as="targetPoint" />
          </mxGeometry>
        </mxCell>
        <mxCell id="4a9bZZS92-BhcnEdYSsW-28" value="Выбор пользователя для отправки сообщения" style="text;html=1;strokeColor=default;fillColor=none;align=center;verticalAlign=middle;whiteSpace=wrap;rounded=1;" parent="1" vertex="1">
          <mxGeometry x="119.5" y="160" width="121" height="50" as="geometry" />
        </mxCell>
        <mxCell id="4a9bZZS92-BhcnEdYSsW-29" value="" style="endArrow=classic;html=1;rounded=0;exitX=0.5;exitY=1;exitDx=0;exitDy=0;entryX=0;entryY=0.5;entryDx=0;entryDy=0;edgeStyle=orthogonalEdgeStyle;" parent="1" source="4a9bZZS92-BhcnEdYSsW-28" target="4a9bZZS92-BhcnEdYSsW-30" edge="1">
          <mxGeometry width="50" height="50" relative="1" as="geometry">
            <mxPoint x="310" y="195" as="sourcePoint" />
            <mxPoint x="270" y="280" as="targetPoint" />
          </mxGeometry>
        </mxCell>
        <mxCell id="4a9bZZS92-BhcnEdYSsW-30" value="Вывод окна для заполнения сообщения" style="text;html=1;strokeColor=default;fillColor=none;align=center;verticalAlign=middle;whiteSpace=wrap;rounded=1;" parent="1" vertex="1">
          <mxGeometry x="318.5" y="250" width="121" height="50" as="geometry" />
        </mxCell>
        <mxCell id="4a9bZZS92-BhcnEdYSsW-31" value="" style="endArrow=classic;html=1;rounded=0;exitX=0.5;exitY=1;exitDx=0;exitDy=0;entryX=1;entryY=0.5;entryDx=0;entryDy=0;" parent="1" source="4a9bZZS92-BhcnEdYSsW-30" target="2U2g50e5jTPGebCMxvRw-1" edge="1">
          <mxGeometry width="50" height="50" relative="1" as="geometry">
            <mxPoint x="383" y="450" as="sourcePoint" />
            <mxPoint x="380" y="350" as="targetPoint" />
            <Array as="points">
              <mxPoint x="380" y="335" />
            </Array>
          </mxGeometry>
        </mxCell>
        <mxCell id="4a9bZZS92-BhcnEdYSsW-41" value="" style="endArrow=none;dashed=1;html=1;dashPattern=1 3;strokeWidth=2;rounded=0;entryX=0;entryY=1;entryDx=0;entryDy=0;" parent="1" target="4a9bZZS92-BhcnEdYSsW-22" edge="1">
          <mxGeometry width="50" height="50" relative="1" as="geometry">
            <mxPoint x="280" y="810" as="sourcePoint" />
            <mxPoint x="370" y="300" as="targetPoint" />
          </mxGeometry>
        </mxCell>
        <mxCell id="4a9bZZS92-BhcnEdYSsW-42" value="" style="endArrow=none;dashed=1;html=1;dashPattern=1 3;strokeWidth=2;rounded=0;entryX=0;entryY=1;entryDx=0;entryDy=0;" parent="1" edge="1">
          <mxGeometry width="50" height="50" relative="1" as="geometry">
            <mxPoint x="480" y="810" as="sourcePoint" />
            <mxPoint x="480" y="80" as="targetPoint" />
          </mxGeometry>
        </mxCell>
        <mxCell id="4a9bZZS92-BhcnEdYSsW-43" value="" style="endArrow=none;html=1;rounded=0;entryX=0;entryY=1;entryDx=0;entryDy=0;" parent="1" target="4a9bZZS92-BhcnEdYSsW-21" edge="1">
          <mxGeometry width="50" height="50" relative="1" as="geometry">
            <mxPoint x="80" y="810" as="sourcePoint" />
            <mxPoint x="370" y="300" as="targetPoint" />
          </mxGeometry>
        </mxCell>
        <mxCell id="4a9bZZS92-BhcnEdYSsW-44" value="Отправка сообщения на сервер" style="text;html=1;strokeColor=default;fillColor=none;align=center;verticalAlign=middle;whiteSpace=wrap;rounded=1;" parent="1" vertex="1">
          <mxGeometry x="318.5" y="480" width="121" height="50" as="geometry" />
        </mxCell>
        <mxCell id="4a9bZZS92-BhcnEdYSsW-45" value="" style="endArrow=classic;html=1;rounded=0;exitX=1;exitY=0.5;exitDx=0;exitDy=0;entryX=0;entryY=0.5;entryDx=0;entryDy=0;" parent="1" source="4a9bZZS92-BhcnEdYSsW-44" target="4a9bZZS92-BhcnEdYSsW-46" edge="1">
          <mxGeometry width="50" height="50" relative="1" as="geometry">
            <mxPoint x="511.5" y="660" as="sourcePoint" />
            <mxPoint x="461.5" y="615" as="targetPoint" />
          </mxGeometry>
        </mxCell>
        <mxCell id="4a9bZZS92-BhcnEdYSsW-46" value="Получение сообщения" style="text;html=1;strokeColor=default;fillColor=none;align=center;verticalAlign=middle;whiteSpace=wrap;rounded=1;" parent="1" vertex="1">
          <mxGeometry x="511.5" y="480" width="121" height="50" as="geometry" />
        </mxCell>
        <mxCell id="4a9bZZS92-BhcnEdYSsW-47" value="" style="endArrow=classic;html=1;rounded=0;exitX=0.5;exitY=1;exitDx=0;exitDy=0;entryX=0.5;entryY=0;entryDx=0;entryDy=0;" parent="1" source="4a9bZZS92-BhcnEdYSsW-46" target="4a9bZZS92-BhcnEdYSsW-48" edge="1">
          <mxGeometry width="50" height="50" relative="1" as="geometry">
            <mxPoint x="587" y="732" as="sourcePoint" />
            <mxPoint x="587.5" y="752" as="targetPoint" />
          </mxGeometry>
        </mxCell>
        <mxCell id="4a9bZZS92-BhcnEdYSsW-51" style="edgeStyle=orthogonalEdgeStyle;rounded=0;orthogonalLoop=1;jettySize=auto;html=1;exitX=1;exitY=0.5;exitDx=0;exitDy=0;entryX=0.5;entryY=0;entryDx=0;entryDy=0;" parent="1" source="4a9bZZS92-BhcnEdYSsW-48" edge="1" target="4a9bZZS92-BhcnEdYSsW-71">
          <mxGeometry relative="1" as="geometry">
            <mxPoint x="581.5" y="900" as="targetPoint" />
            <Array as="points">
              <mxPoint x="652" y="595" />
              <mxPoint x="652" y="720" />
              <mxPoint x="582" y="720" />
            </Array>
          </mxGeometry>
        </mxCell>
        <mxCell id="4a9bZZS92-BhcnEdYSsW-53" style="edgeStyle=orthogonalEdgeStyle;rounded=0;orthogonalLoop=1;jettySize=auto;html=1;exitX=0;exitY=0.5;exitDx=0;exitDy=0;entryX=0.5;entryY=0;entryDx=0;entryDy=0;" parent="1" source="4a9bZZS92-BhcnEdYSsW-48" target="4a9bZZS92-BhcnEdYSsW-58" edge="1">
          <mxGeometry relative="1" as="geometry">
            <mxPoint x="544.25" y="812" as="targetPoint" />
            <Array as="points">
              <mxPoint x="561" y="630" />
              <mxPoint x="572" y="630" />
            </Array>
          </mxGeometry>
        </mxCell>
        <mxCell id="4a9bZZS92-BhcnEdYSsW-48" value="" style="rhombus;whiteSpace=wrap;html=1;" parent="1" vertex="1">
          <mxGeometry x="560.5" y="582" width="25" height="25" as="geometry" />
        </mxCell>
        <mxCell id="4a9bZZS92-BhcnEdYSsW-49" value="Получено?" style="text;html=1;strokeColor=none;fillColor=none;align=center;verticalAlign=middle;whiteSpace=wrap;rounded=0;" parent="1" vertex="1">
          <mxGeometry x="506" y="567" width="60" height="25" as="geometry" />
        </mxCell>
        <mxCell id="4a9bZZS92-BhcnEdYSsW-57" value="Нет" style="text;html=1;strokeColor=none;fillColor=none;align=center;verticalAlign=middle;whiteSpace=wrap;rounded=0;" parent="1" vertex="1">
          <mxGeometry x="517" y="600" width="60" height="30" as="geometry" />
        </mxCell>
        <mxCell id="4a9bZZS92-BhcnEdYSsW-58" value="Отправка кода ошибки" style="text;html=1;strokeColor=default;fillColor=none;align=center;verticalAlign=middle;whiteSpace=wrap;rounded=1;" parent="1" vertex="1">
          <mxGeometry x="511.5" y="660" width="121" height="50" as="geometry" />
        </mxCell>
        <mxCell id="4a9bZZS92-BhcnEdYSsW-60" value="" style="endArrow=none;html=1;rounded=0;entryX=0;entryY=1;entryDx=0;entryDy=0;" parent="1" edge="1">
          <mxGeometry width="50" height="50" relative="1" as="geometry">
            <mxPoint x="680" y="810" as="sourcePoint" />
            <mxPoint x="680" y="80" as="targetPoint" />
          </mxGeometry>
        </mxCell>
        <mxCell id="4a9bZZS92-BhcnEdYSsW-61" value="Да" style="text;html=1;strokeColor=none;fillColor=none;align=center;verticalAlign=middle;whiteSpace=wrap;rounded=0;" parent="1" vertex="1">
          <mxGeometry x="610" y="564.5" width="60" height="30" as="geometry" />
        </mxCell>
        <mxCell id="4a9bZZS92-BhcnEdYSsW-63" value="" style="endArrow=classic;html=1;rounded=0;exitX=0;exitY=0.5;exitDx=0;exitDy=0;entryX=1;entryY=0.5;entryDx=0;entryDy=0;" parent="1" source="4a9bZZS92-BhcnEdYSsW-58" edge="1" target="4a9bZZS92-BhcnEdYSsW-64">
          <mxGeometry width="50" height="50" relative="1" as="geometry">
            <mxPoint x="320" y="820" as="sourcePoint" />
            <mxPoint x="461.5" y="835" as="targetPoint" />
          </mxGeometry>
        </mxCell>
        <mxCell id="4a9bZZS92-BhcnEdYSsW-66" style="edgeStyle=orthogonalEdgeStyle;rounded=0;orthogonalLoop=1;jettySize=auto;html=1;exitX=0;exitY=0.5;exitDx=0;exitDy=0;entryX=1;entryY=0.5;entryDx=0;entryDy=0;" parent="1" source="4a9bZZS92-BhcnEdYSsW-64" target="4a9bZZS92-BhcnEdYSsW-65" edge="1">
          <mxGeometry relative="1" as="geometry" />
        </mxCell>
        <mxCell id="4a9bZZS92-BhcnEdYSsW-64" value="Вывод ошибки сервера" style="text;html=1;strokeColor=default;fillColor=none;align=center;verticalAlign=middle;whiteSpace=wrap;rounded=1;" parent="1" vertex="1">
          <mxGeometry x="341.5" y="660" width="121" height="50" as="geometry" />
        </mxCell>
        <mxCell id="4a9bZZS92-BhcnEdYSsW-65" value="" style="ellipse;html=1;shape=endState;fillColor=strokeColor;" parent="1" vertex="1">
          <mxGeometry x="290" y="670" width="30" height="30" as="geometry" />
        </mxCell>
        <mxCell id="4a9bZZS92-BhcnEdYSsW-73" style="edgeStyle=orthogonalEdgeStyle;rounded=0;orthogonalLoop=1;jettySize=auto;html=1;exitX=0;exitY=0.5;exitDx=0;exitDy=0;entryX=1;entryY=0.5;entryDx=0;entryDy=0;" parent="1" source="4a9bZZS92-BhcnEdYSsW-71" target="4a9bZZS92-BhcnEdYSsW-72" edge="1">
          <mxGeometry relative="1" as="geometry">
            <Array as="points">
              <mxPoint x="490" y="765" />
              <mxPoint x="490" y="765" />
            </Array>
            <mxPoint x="581.75" y="860" as="sourcePoint" />
          </mxGeometry>
        </mxCell>
        <mxCell id="4a9bZZS92-BhcnEdYSsW-71" value="Отправка сообщения" style="text;html=1;strokeColor=default;fillColor=none;align=center;verticalAlign=middle;whiteSpace=wrap;rounded=1;" parent="1" vertex="1">
          <mxGeometry x="511.5" y="740" width="140.5" height="50" as="geometry" />
        </mxCell>
        <mxCell id="4a9bZZS92-BhcnEdYSsW-72" value="Вывод успеха отправки сообщения" style="text;html=1;strokeColor=default;fillColor=none;align=center;verticalAlign=middle;whiteSpace=wrap;rounded=1;" parent="1" vertex="1">
          <mxGeometry x="340" y="740" width="127" height="50" as="geometry" />
        </mxCell>
        <mxCell id="4a9bZZS92-BhcnEdYSsW-95" value="" style="endArrow=none;html=1;rounded=0;" parent="1" edge="1">
          <mxGeometry width="50" height="50" relative="1" as="geometry">
            <mxPoint x="80" y="810" as="sourcePoint" />
            <mxPoint x="680" y="810" as="targetPoint" />
          </mxGeometry>
        </mxCell>
        <mxCell id="01D0WKEzNjMwUzCxD3XC-1" value="" style="ellipse;html=1;shape=endState;fillColor=strokeColor;" parent="1" vertex="1">
          <mxGeometry x="288" y="748" width="30" height="30" as="geometry" />
        </mxCell>
        <mxCell id="01D0WKEzNjMwUzCxD3XC-2" style="edgeStyle=orthogonalEdgeStyle;rounded=0;orthogonalLoop=1;jettySize=auto;html=1;entryX=1;entryY=0.5;entryDx=0;entryDy=0;" parent="1" target="01D0WKEzNjMwUzCxD3XC-1" edge="1">
          <mxGeometry relative="1" as="geometry">
            <mxPoint x="339.5" y="763" as="sourcePoint" />
            <mxPoint x="328.5" y="683" as="targetPoint" />
          </mxGeometry>
        </mxCell>
        <mxCell id="01D0WKEzNjMwUzCxD3XC-4" value="Отправка сообщений" style="shape=umlFrame;whiteSpace=wrap;html=1;pointerEvents=0;width=180;height=30;" parent="1" vertex="1">
          <mxGeometry x="39" width="680" height="850" as="geometry" />
        </mxCell>
        <mxCell id="2U2g50e5jTPGebCMxvRw-1" value="Ввод сообщение и отправка" style="text;html=1;strokeColor=default;fillColor=none;align=center;verticalAlign=middle;whiteSpace=wrap;rounded=1;" vertex="1" parent="1">
          <mxGeometry x="119.5" y="310" width="121" height="50" as="geometry" />
        </mxCell>
        <mxCell id="2U2g50e5jTPGebCMxvRw-2" value="" style="endArrow=classic;html=1;rounded=0;exitX=0.5;exitY=1;exitDx=0;exitDy=0;entryX=0;entryY=0.5;entryDx=0;entryDy=0;" edge="1" parent="1" source="2U2g50e5jTPGebCMxvRw-1" target="2U2g50e5jTPGebCMxvRw-3">
          <mxGeometry width="50" height="50" relative="1" as="geometry">
            <mxPoint x="219" y="420" as="sourcePoint" />
            <mxPoint x="180" y="410" as="targetPoint" />
            <Array as="points">
              <mxPoint x="180" y="395" />
            </Array>
          </mxGeometry>
        </mxCell>
        <mxCell id="2U2g50e5jTPGebCMxvRw-3" value="Формирование сообщения" style="text;html=1;strokeColor=default;fillColor=none;align=center;verticalAlign=middle;whiteSpace=wrap;rounded=1;" vertex="1" parent="1">
          <mxGeometry x="318.5" y="370" width="121" height="50" as="geometry" />
        </mxCell>
        <mxCell id="2U2g50e5jTPGebCMxvRw-4" value="" style="endArrow=classic;html=1;rounded=0;exitX=0.5;exitY=1;exitDx=0;exitDy=0;" edge="1" parent="1" source="2U2g50e5jTPGebCMxvRw-3">
          <mxGeometry width="50" height="50" relative="1" as="geometry">
            <mxPoint x="389" y="125" as="sourcePoint" />
            <mxPoint x="380" y="480" as="targetPoint" />
          </mxGeometry>
        </mxCell>
      </root>
    </mxGraphModel>
  </diagram>
</mxfile>
